# xmcd
#
# Track frame offsets:
#	150
#	14626
#	28754
#	42001
#	57381
#	73474
#	86700
#	102709
#	118588
#	132445
#	145606
#	160020
#	177030
#	189203
#
# Disc length: 2761 seconds
#
# Revision: 1
# Processed by: cddbd v1.5.2PL0 Copyright (c) Steve Scherf et al.
# Submitted via: audiograbber 1.83.01
#
DISCID=c50ac70e
DTITLE=Truck Stop - Meilensteine (Raritäten and Duette) [2CD] (2017) [CD 2)
DYEAR=2017
DGENRE=Deutsch Country
TTITLE0=Höhner and Lucius - Angeln entspannt
TTITLE1=Gunter Gabriel and Cisco - Die Frau mit dem Gurt
TTITLE2=Stefan Raab and Cisco - Der wilde, wilde Westen
TTITLE3=Bellamy Brothers and Lucius - Hello, Lady Harley
TTITLE4=Tom Astor and Lucius - Ich möcht' so gern Dave Dudley hörn'
TTITLE5=Marcus Wohlfart and Lucius - Take it easy altes Haus
TTITLE6=Linda Feller and Lucius - Hey, kleiner Cowboy
TTITLE7=Peter Steinlechner and Lucius - Freunde bleiben
TTITLE8=Jill Morris and Cisco - Komm her Du bist mein Cowboy
TTITLE9=Jill Morris and Cisco - Unsere Herzen
TTITLE10=Lucius and Cisco - Wir zwei
TTITLE11=Lucius and Cisco - Eine Gitarre und eine Ukulele
TTITLE12=Lucius and Cisco - Zwei sind einer zuviel
TTITLE13=Lucius and Cisco - Ein Herz und eine Seele
EXTD=MARO\n
EXTT0=
EXTT1=
EXTT2=
EXTT3=
EXTT4=
EXTT5=
EXTT6=
EXTT7=
EXTT8=
EXTT9=
EXTT10=
EXTT11=
EXTT12=
EXTT13=
PLAYORDER=
